<svg xmlns="http://www.w3.org/2000/svg" xmlns:xlink="http://www.w3.org/1999/xlink" width="500" zoomAndPan="magnify" viewBox="0 0 375 374.999991" height="500" preserveAspectRatio="xMidYMid meet" version="1.0"><defs><g/></defs><path stroke-linecap="butt" transform="matrix(0.75, 0, 0, 0.75, 10.1558, 150.735269)" fill="none" stroke-linejoin="miter" d="M 21.828726 95.488398 C 26.854768 97.780065 32.44331 98.92069 38.59956 98.92069 C 41.948519 98.92069 45.490186 98.425898 49.214144 97.436315 C 52.943311 96.446732 56.141228 95.061315 58.807895 93.280065 C 58.740187 91.504023 58.66727 89.79569 58.599562 88.155064 C 58.531853 86.509231 58.500603 84.493606 58.500603 82.102981 L 58.500603 74.920689 L 63.01102 73.691522 L 62.807895 69.79048 L 42.802686 69.79048 L 42.599561 73.894647 L 49.573519 75.024855 C 49.708936 75.910272 49.813103 77.212355 49.880811 78.920689 C 49.948519 80.629022 49.984978 82.613397 49.984978 84.868606 L 49.984978 91.399856 C 48.787061 91.993606 47.505811 92.45194 46.136019 92.769648 C 43.776644 93.316523 41.641227 93.587356 39.72456 93.587356 C 35.281852 93.587356 31.281852 92.561315 27.72456 90.509231 C 24.167268 88.462356 21.349559 85.399856 19.261017 81.332147 C 17.177684 77.264439 16.136017 72.32173 16.136017 66.50923 C 16.136017 62.061313 16.922476 57.993604 18.495392 54.300896 C 20.068309 50.608187 22.511018 47.649853 25.828726 45.431103 C 29.146435 43.207145 33.432893 42.092561 38.703727 42.092561 C 40.547477 42.092561 42.563102 42.300895 44.755811 42.712353 C 46.943311 43.118603 48.682894 43.806103 49.984978 44.764437 L 52.958936 53.889437 L 57.474562 53.483187 L 56.859978 40.045686 C 54.531853 39.019645 51.781853 38.233186 48.599561 37.686311 C 45.422477 37.139436 42.396436 36.863394 39.521435 36.863394 C 34.120393 36.863394 29.313101 37.686311 25.109976 39.326936 C 20.901643 40.967561 17.349559 43.259228 14.443309 46.196728 C 11.537059 49.139437 9.3131 52.50402 7.771433 56.300896 C 6.234975 60.097771 5.464142 64.149855 5.464142 68.457146 C 5.464142 75.160272 6.9381 80.764439 9.8756 85.280064 C 12.818309 89.79569 16.802684 93.196731 21.828726 95.488398 Z M 21.828726 95.488398 " stroke="#a65e18" stroke-width="11.160712" stroke-opacity="1" stroke-miterlimit="4"/><path stroke-linecap="butt" transform="matrix(0.75, 0, 0, 0.75, 60.004611, 150.735269)" fill="none" stroke-linejoin="miter" d="M 20.186562 95.024857 C 24.801145 97.623815 30.082396 98.92069 36.035521 98.92069 C 39.999063 98.92069 43.743855 98.155065 47.264688 96.613398 C 50.79073 95.07694 53.915731 92.88944 56.650106 90.050898 C 59.389689 87.212356 61.540731 83.879023 63.113648 80.050897 C 64.686565 76.217564 65.473023 72.014438 65.473023 67.431105 C 65.473023 61.415479 64.228231 56.113396 61.728231 51.530062 C 59.233439 46.951937 55.795939 43.358187 51.420939 40.759228 C 47.045938 38.16027 41.983438 36.863394 36.238646 36.863394 C 30.358437 36.863394 25.077187 38.212353 20.389687 40.915478 C 15.707395 43.618603 12.045936 47.326937 9.415728 52.045687 C 6.780311 56.764437 5.467811 62.134229 5.467811 68.149855 C 5.467811 74.16548 6.764686 79.504022 9.363644 84.149856 C 11.962603 88.800898 15.571978 92.425898 20.186562 95.024857 Z M 46.650105 90.509231 C 43.952188 92.425898 40.717813 93.384231 36.957396 93.384231 C 32.920938 93.384231 29.332396 92.222773 26.186562 89.894648 C 23.040729 87.571731 20.577187 84.373814 18.801145 80.306106 C 17.025103 76.238397 16.134478 71.535272 16.134478 66.201938 C 16.134478 58.748813 17.827187 52.84777 21.212603 48.50402 C 24.59802 44.165478 29.196979 41.993603 35.009479 41.993603 C 39.04073 41.993603 42.545938 43.170686 45.525105 45.530062 C 48.499064 47.889437 50.837605 51.155062 52.551147 55.326937 C 54.259481 59.498813 55.113647 64.35298 55.113647 69.894647 C 55.113647 74.681105 54.379272 78.837356 52.910522 82.358189 C 51.436564 85.879023 49.35323 88.597773 46.650105 90.509231 Z M 46.650105 90.509231 " stroke="#a65e18" stroke-width="11.160712" stroke-opacity="1" stroke-miterlimit="4"/><path stroke-linecap="butt" transform="matrix(0.75, 0, 0, 0.75, 112.776655, 150.735269)" fill="none" stroke-linejoin="miter" d="M 26.698837 37.785269 L 4.954044 37.785269 L 4.745711 41.686311 L 11.006128 43.22277 C 11.073836 43.425895 11.125919 44.009228 11.157169 44.967562 C 11.193628 45.925895 11.245711 47.446728 11.313419 49.530062 C 11.381128 51.618604 11.417586 54.540479 11.417586 58.300896 L 11.417586 75.332147 C 11.417586 82.852981 13.516545 88.665481 17.724878 92.769648 C 21.928004 96.873815 27.761337 98.92069 35.214463 98.92069 C 39.386338 98.92069 43.146755 98.035273 46.495713 96.254023 C 49.84988 94.477982 52.480089 91.743606 54.396756 88.050898 C 56.308214 84.358189 57.266548 79.639439 57.266548 73.894647 L 57.266548 60.149854 C 57.266548 55.977979 57.287381 52.696729 57.318631 50.300895 C 57.355089 47.91027 57.407173 46.181103 57.474881 45.118603 C 57.542589 44.061312 57.573839 43.425895 57.573839 43.22277 L 63.834256 41.686311 L 63.526965 37.785269 L 43.625922 37.785269 L 43.31863 41.686311 L 50.495714 43.22277 C 50.636339 43.634228 50.735297 44.608187 50.803005 46.144645 C 50.875922 47.686312 50.94363 49.634229 51.011339 51.993604 C 51.079047 54.352979 51.115505 57.071729 51.115505 60.149854 L 51.115505 73.379022 C 51.115505 77.894647 50.495714 81.535272 49.266547 84.306106 C 48.03738 87.076939 46.308213 89.07694 44.084255 90.306106 C 41.865505 91.535273 39.245713 92.155065 36.240504 92.155065 C 33.162379 92.155065 30.428004 91.535273 28.032171 90.306106 C 25.641545 89.07694 23.776962 87.144648 22.443629 84.509231 C 21.110295 81.879022 20.40717 78.405064 20.339462 74.097772 L 20.339462 58.300896 C 20.339462 54.540479 20.355087 51.634229 20.391545 49.582145 C 20.422795 47.530062 20.474878 46.024853 20.542587 45.071728 C 20.615503 44.113395 20.646753 43.498812 20.646753 43.22277 L 27.006129 41.686311 Z M 26.698837 37.785269 " stroke="#a65e18" stroke-width="11.160712" stroke-opacity="1" stroke-miterlimit="4"/><path stroke-linecap="butt" transform="matrix(0.75, 0, 0, 0.75, 163.856303, 150.735269)" fill="none" stroke-linejoin="miter" d="M 21.722848 95.488398 C 26.613473 97.780065 32.035349 98.92069 37.983266 98.92069 C 41.540558 98.92069 44.905141 98.462357 48.087433 97.540482 C 51.264517 96.613398 54.056183 95.571732 56.446809 94.410273 L 59.321809 81.483189 L 54.603059 80.972772 L 50.087433 90.613398 C 48.446808 91.571731 46.717641 92.290481 44.905141 92.769648 C 43.092641 93.248815 41.129099 93.488398 39.009308 93.488398 C 34.837432 93.488398 31.024932 92.462356 27.571807 90.410273 C 24.118682 88.358189 21.384306 85.316523 19.363473 81.280064 C 17.347848 77.243605 16.337431 72.32173 16.337431 66.50923 C 16.337431 62.061313 17.108264 57.993604 18.644723 54.300896 C 20.18639 50.608187 22.577015 47.649853 25.827015 45.431103 C 29.077015 43.207145 33.264515 42.092561 38.394724 42.092561 C 40.379099 42.092561 42.425974 42.31652 44.545766 42.759228 C 46.665558 43.207145 48.3791 43.873812 49.675975 44.764437 L 52.7541 54.509229 L 57.368684 54.097771 L 56.649934 40.045686 C 54.1916 39.019645 51.384308 38.233186 48.238475 37.686311 C 45.092641 37.139436 42.118683 36.863394 39.316599 36.863394 C 33.983266 36.863394 29.228057 37.686311 25.056182 39.326936 C 20.884306 40.967561 17.347848 43.238395 14.441598 46.144645 C 11.535347 49.050895 9.332222 52.405062 7.827014 56.201937 C 6.321805 59.993604 5.566597 64.045688 5.566597 68.35298 C 5.566597 75.056105 7.040555 80.681106 9.978056 85.227981 C 12.920764 89.774856 16.837431 93.196731 21.722848 95.488398 Z M 21.722848 95.488398 " stroke="#a65e18" stroke-width="11.160712" stroke-opacity="1" stroke-miterlimit="4"/><path stroke-linecap="butt" transform="matrix(0.75, 0, 0, 0.75, 210.320338, 150.735269)" fill="none" stroke-linejoin="miter" d="M 4.953091 94.102982 L 5.260383 97.998815 L 27.109343 97.998815 L 27.312468 94.102982 L 21.057259 92.665481 C 20.921843 92.394648 20.802051 91.691523 20.697884 90.561315 C 20.593718 89.436315 20.526009 87.811314 20.494759 85.691523 C 20.458301 83.571731 20.442676 80.868606 20.442676 77.587355 L 20.442676 69.957147 C 21.749968 69.837355 23.322884 69.764438 25.161426 69.738397 C 27.624968 69.707147 30.83851 69.686313 34.802052 69.686313 C 38.635385 69.686313 41.744761 69.707147 44.135386 69.738397 C 45.973928 69.764438 47.546844 69.842563 48.854136 69.967563 L 48.854136 77.587355 C 48.854136 80.868606 48.838511 83.571731 48.807261 85.691523 C 48.770803 87.811314 48.703094 89.436315 48.598928 90.561315 C 48.499969 91.691523 48.380178 92.394648 48.239553 92.665481 L 41.984344 94.102982 L 42.187469 97.998815 L 64.244762 97.998815 L 64.552054 94.102982 L 58.192678 92.665481 C 58.052053 92.394648 57.953095 91.691523 57.885387 90.561315 C 57.81247 89.436315 57.744762 87.811314 57.677053 85.691523 C 57.609345 83.571731 57.578095 80.868606 57.578095 77.587355 L 57.578095 58.300896 C 57.578095 54.884229 57.609345 52.113395 57.677053 49.993604 C 57.744762 47.873812 57.81247 46.248812 57.885387 45.118603 C 57.953095 43.993603 58.052053 43.326937 58.192678 43.118603 L 64.552054 41.686311 L 64.244762 37.785269 L 42.187469 37.785269 L 41.984344 41.686311 L 48.239553 43.118603 C 48.380178 43.326937 48.499969 43.993603 48.598928 45.118603 C 48.703094 46.248812 48.770803 47.873812 48.807261 49.993604 C 48.838511 52.113395 48.854136 54.884229 48.854136 58.300896 L 48.854136 64.10298 C 47.692678 64.149855 46.171844 64.201938 44.291636 64.254021 C 41.729136 64.32173 38.562469 64.35298 34.802052 64.35298 C 31.041635 64.35298 27.828093 64.32173 25.161426 64.254021 C 23.229134 64.201938 21.656218 64.155063 20.442676 64.10298 L 20.442676 58.300896 C 20.442676 54.884229 20.458301 52.113395 20.494759 49.993604 C 20.526009 47.873812 20.593718 46.248812 20.697884 45.118603 C 20.802051 43.993603 20.921843 43.326937 21.057259 43.118603 L 27.312468 41.686311 L 27.109343 37.785269 L 5.260383 37.785269 L 4.953091 41.686311 L 11.312467 43.118603 C 11.447884 43.326937 11.536425 44.061312 11.567675 45.326937 C 11.604134 46.592562 11.635384 48.300895 11.671842 50.457145 C 11.7083 52.608187 11.723925 55.222771 11.723925 58.300896 L 11.723925 77.587355 C 11.723925 80.597772 11.7083 83.160272 11.671842 85.280064 C 11.635384 87.399856 11.604134 89.07694 11.567675 90.306106 C 11.536425 91.535273 11.447884 92.321731 11.312467 92.665481 Z M 4.953091 94.102982 " stroke="#a65e18" stroke-width="11.160712" stroke-opacity="1" stroke-miterlimit="4"/><path stroke-linecap="butt" transform="matrix(0.75, 0, 0, 0.75, 262.015386, 150.735269)" fill="none" stroke-linejoin="miter" d="M 5.05761 94.102982 L 5.260735 97.998815 L 27.109695 97.998815 L 27.31282 94.102982 L 21.057611 92.665481 C 20.922194 92.394648 20.802403 91.691523 20.698236 90.561315 C 20.594069 89.436315 20.526361 87.811314 20.495111 85.691523 C 20.458653 83.571731 20.443028 80.868606 20.443028 77.587355 L 20.443028 58.300896 C 20.443028 54.884229 20.458653 52.113395 20.495111 49.993604 C 20.526361 47.873812 20.594069 46.248812 20.698236 45.118603 C 20.802403 43.993603 20.922194 43.326937 21.057611 43.118603 L 27.31282 41.686311 L 27.109695 37.785269 L 5.260735 37.785269 L 5.05761 41.686311 L 11.312819 43.118603 C 11.448235 43.326937 11.536777 44.061312 11.568027 45.326937 C 11.604485 46.592562 11.635735 48.300895 11.672194 50.457145 C 11.703444 52.608187 11.724277 55.222771 11.724277 58.300896 L 11.724277 77.587355 C 11.724277 80.597772 11.703444 83.160272 11.672194 85.280064 C 11.635735 87.399856 11.604485 89.07694 11.568027 90.306106 C 11.536777 91.535273 11.448235 92.321731 11.312819 92.665481 Z M 5.05761 94.102982 " stroke="#a65e18" stroke-width="11.160712" stroke-opacity="1" stroke-miterlimit="4"/><path stroke-linecap="butt" transform="matrix(0.75, 0, 0, 0.75, 285.862836, 150.735269)" fill="none" stroke-linejoin="miter" d="M 44.906846 98.207148 C 46.104763 98.274857 47.182888 98.373815 48.136013 98.51444 L 52.344347 82.816522 L 47.729763 81.790481 L 42.39643 91.847773 C 41.297471 91.98319 40.203721 92.082148 39.109971 92.155065 C 38.016221 92.222773 36.682888 92.254023 35.109971 92.254023 L 27.417262 92.254023 C 26.04747 92.254023 24.870387 92.238398 23.880803 92.20194 C 22.886012 92.17069 21.912053 92.082148 20.95372 91.946731 C 20.886012 91.196731 20.818303 89.504023 20.750595 86.868606 C 20.682887 84.238398 20.646428 81.144647 20.646428 77.587355 L 20.646428 58.300896 C 20.646428 55.019646 20.682887 52.300895 20.750595 50.149854 C 20.818303 47.993603 20.886012 46.352978 20.95372 45.22277 C 21.021428 44.09777 21.125595 43.425895 21.261012 43.22277 L 29.776637 41.889436 L 29.469345 37.785269 L 5.365177 37.785269 L 5.156844 41.686311 L 11.417261 43.22277 C 11.552678 43.498812 11.656844 44.248812 11.724553 45.477978 C 11.792261 46.712353 11.823511 48.384229 11.823511 50.50402 L 11.823511 77.587355 C 11.823511 80.530064 11.807886 83.092564 11.776636 85.280064 C 11.740178 87.467564 11.688094 89.160273 11.620386 90.35819 C 11.552678 91.556106 11.484969 92.321731 11.417261 92.665481 L 5.156844 94.102982 L 5.365177 97.998815 L 38.188096 97.998815 C 39.146429 97.998815 40.203721 98.019648 41.370388 98.050898 C 42.531846 98.087357 43.70893 98.134232 44.906846 98.207148 Z M 44.906846 98.207148 " stroke="#a65e18" stroke-width="11.160712" stroke-opacity="1" stroke-miterlimit="4"/><path stroke-linecap="butt" transform="matrix(0.75, 0, 0, 0.75, 325.17259, 150.735269)" fill="none" stroke-linejoin="miter" d="M 44.9053 98.207148 C 46.103217 98.274857 47.181342 98.373815 48.139675 98.51444 L 52.342801 82.816522 L 47.728217 81.790481 L 42.394883 91.847773 C 41.301133 91.98319 40.207383 92.082148 39.113633 92.155065 C 38.019883 92.222773 36.681341 92.254023 35.108425 92.254023 L 27.415716 92.254023 C 26.051132 92.254023 24.868841 92.238398 23.879257 92.20194 C 22.884465 92.17069 21.910507 92.082148 20.957382 91.946731 C 20.884465 91.196731 20.816757 89.504023 20.749049 86.868606 C 20.68134 84.238398 20.644882 81.144647 20.644882 77.587355 L 20.644882 58.300896 C 20.644882 55.019646 20.68134 52.300895 20.749049 50.149854 C 20.816757 47.993603 20.884465 46.352978 20.957382 45.22277 C 21.02509 44.09777 21.124049 43.425895 21.264674 43.22277 L 29.775091 41.889436 L 29.467799 37.785269 L 5.363631 37.785269 L 5.160506 41.686311 L 11.415715 43.22277 C 11.551131 43.498812 11.655298 44.248812 11.723006 45.477978 C 11.790715 46.712353 11.827173 48.384229 11.827173 50.50402 L 11.827173 77.587355 C 11.827173 80.530064 11.80634 83.092564 11.77509 85.280064 C 11.738631 87.467564 11.686548 89.160273 11.61884 90.35819 C 11.551131 91.556106 11.483423 92.321731 11.415715 92.665481 L 5.160506 94.102982 L 5.363631 97.998815 L 38.18655 97.998815 C 39.144883 97.998815 40.207383 98.019648 41.368842 98.050898 C 42.5303 98.087357 43.712592 98.134232 44.9053 98.207148 Z M 44.9053 98.207148 " stroke="#a65e18" stroke-width="11.160712" stroke-opacity="1" stroke-miterlimit="4"/><g fill="#e19041" fill-opacity="1"><g transform="translate(10.331582, 224.235264)"><g><path d="M 28.78125 0.6875 C 24.15625 0.6875 19.957031 -0.171875 16.1875 -1.890625 C 12.425781 -3.609375 9.441406 -6.160156 7.234375 -9.546875 C 5.023438 -12.929688 3.921875 -17.132812 3.921875 -22.15625 C 3.921875 -25.382812 4.5 -28.421875 5.65625 -31.265625 C 6.8125 -34.117188 8.476562 -36.644531 10.65625 -38.84375 C 12.832031 -41.050781 15.5 -42.769531 18.65625 -44 C 21.8125 -45.238281 25.414062 -45.859375 29.46875 -45.859375 C 31.625 -45.859375 33.894531 -45.648438 36.28125 -45.234375 C 38.664062 -44.828125 40.726562 -44.238281 42.46875 -43.46875 L 42.921875 -33.390625 L 39.546875 -33.078125 L 37.3125 -39.921875 C 36.34375 -40.640625 35.035156 -41.148438 33.390625 -41.453125 C 31.742188 -41.765625 30.226562 -41.921875 28.84375 -41.921875 C 24.894531 -41.921875 21.675781 -41.085938 19.1875 -39.421875 C 16.707031 -37.753906 14.875 -35.535156 13.6875 -32.765625 C 12.507812 -30.003906 11.921875 -26.957031 11.921875 -23.625 C 11.921875 -19.257812 12.703125 -15.550781 14.265625 -12.5 C 15.835938 -9.445312 17.957031 -7.148438 20.625 -5.609375 C 23.289062 -4.078125 26.289062 -3.3125 29.625 -3.3125 C 31.0625 -3.3125 32.660156 -3.515625 34.421875 -3.921875 C 36.191406 -4.335938 37.769531 -5.054688 39.15625 -6.078125 L 37.3125 -1.765625 L 37.3125 -9.84375 C 37.3125 -11.539062 37.285156 -13.03125 37.234375 -14.3125 C 37.179688 -15.59375 37.101562 -16.566406 37 -17.234375 L 31.78125 -18.078125 L 31.921875 -21.15625 L 46.9375 -21.15625 L 47.078125 -18.234375 L 43.703125 -17.3125 C 43.703125 -17.050781 43.703125 -16.429688 43.703125 -15.453125 C 43.703125 -14.484375 43.703125 -13.304688 43.703125 -11.921875 C 43.703125 -10.128906 43.726562 -8.617188 43.78125 -7.390625 C 43.832031 -6.160156 43.882812 -4.875 43.9375 -3.53125 C 41.925781 -2.195312 39.523438 -1.160156 36.734375 -0.421875 C 33.941406 0.316406 31.289062 0.6875 28.78125 0.6875 Z M 28.78125 0.6875 "/></g></g></g><g fill="#e19041" fill-opacity="1"><g transform="translate(60.180392, 224.235264)"><g><path d="M 26.84375 0.6875 C 22.382812 0.6875 18.421875 -0.285156 14.953125 -2.234375 C 11.492188 -4.179688 8.789062 -6.898438 6.84375 -10.390625 C 4.894531 -13.878906 3.921875 -17.878906 3.921875 -22.390625 C 3.921875 -26.898438 4.90625 -30.925781 6.875 -34.46875 C 8.851562 -38.007812 11.597656 -40.789062 15.109375 -42.8125 C 18.628906 -44.84375 22.59375 -45.859375 27 -45.859375 C 31.3125 -45.859375 35.109375 -44.878906 38.390625 -42.921875 C 41.671875 -40.972656 44.25 -38.28125 46.125 -34.84375 C 48 -31.414062 48.9375 -27.441406 48.9375 -22.921875 C 48.9375 -19.484375 48.34375 -16.328125 47.15625 -13.453125 C 45.976562 -10.585938 44.363281 -8.085938 42.3125 -5.953125 C 40.257812 -3.828125 37.910156 -2.1875 35.265625 -1.03125 C 32.628906 0.113281 29.820312 0.6875 26.84375 0.6875 Z M 27.546875 -3.46875 C 30.367188 -3.46875 32.789062 -4.179688 34.8125 -5.609375 C 36.84375 -7.046875 38.40625 -9.082031 39.5 -11.71875 C 40.601562 -14.363281 41.15625 -17.484375 41.15625 -21.078125 C 41.15625 -25.234375 40.515625 -28.875 39.234375 -32 C 37.953125 -35.132812 36.195312 -37.582031 33.96875 -39.34375 C 31.738281 -41.113281 29.109375 -42 26.078125 -42 C 21.722656 -42 18.273438 -40.367188 15.734375 -37.109375 C 13.191406 -33.859375 11.921875 -29.4375 11.921875 -23.84375 C 11.921875 -19.84375 12.585938 -16.316406 13.921875 -13.265625 C 15.253906 -10.210938 17.097656 -7.816406 19.453125 -6.078125 C 21.816406 -4.335938 24.515625 -3.46875 27.546875 -3.46875 Z M 27.546875 -3.46875 "/></g></g></g><g fill="#e19041" fill-opacity="1"><g transform="translate(112.952436, 224.235264)"><g><path d="M 3.53125 -45.15625 L 19.84375 -45.15625 L 20.078125 -42.234375 L 15.3125 -41.078125 C 15.3125 -40.878906 15.285156 -40.421875 15.234375 -39.703125 C 15.179688 -38.984375 15.140625 -37.851562 15.109375 -36.3125 C 15.085938 -34.769531 15.078125 -32.59375 15.078125 -29.78125 L 15.078125 -17.921875 C 15.128906 -14.691406 15.65625 -12.085938 16.65625 -10.109375 C 17.65625 -8.140625 19.050781 -6.691406 20.84375 -5.765625 C 22.644531 -4.847656 24.695312 -4.390625 27 -4.390625 C 29.257812 -4.390625 31.222656 -4.847656 32.890625 -5.765625 C 34.554688 -6.691406 35.847656 -8.191406 36.765625 -10.265625 C 37.691406 -12.347656 38.15625 -15.082031 38.15625 -18.46875 L 38.15625 -28.390625 C 38.15625 -30.691406 38.128906 -32.726562 38.078125 -34.5 C 38.023438 -36.269531 37.972656 -37.734375 37.921875 -38.890625 C 37.878906 -40.046875 37.804688 -40.773438 37.703125 -41.078125 L 32.3125 -42.234375 L 32.546875 -45.15625 L 47.46875 -45.15625 L 47.703125 -42.234375 L 43 -41.078125 C 43 -40.929688 42.972656 -40.457031 42.921875 -39.65625 C 42.878906 -38.863281 42.84375 -37.566406 42.8125 -35.765625 C 42.789062 -33.972656 42.78125 -31.515625 42.78125 -28.390625 L 42.78125 -18.078125 C 42.78125 -13.765625 42.0625 -10.222656 40.625 -7.453125 C 39.1875 -4.691406 37.207031 -2.644531 34.6875 -1.3125 C 32.175781 0.0195312 29.359375 0.6875 26.234375 0.6875 C 20.640625 0.6875 16.265625 -0.847656 13.109375 -3.921875 C 9.960938 -7.003906 8.390625 -11.363281 8.390625 -17 L 8.390625 -29.78125 C 8.390625 -32.59375 8.363281 -34.78125 8.3125 -36.34375 C 8.257812 -37.914062 8.21875 -39.0625 8.1875 -39.78125 C 8.164062 -40.5 8.128906 -40.929688 8.078125 -41.078125 L 3.390625 -42.234375 Z M 3.53125 -45.15625 "/></g></g></g><g fill="#e19041" fill-opacity="1"><g transform="translate(164.032084, 224.235264)"><g><path d="M 28.3125 0.6875 C 23.851562 0.6875 19.785156 -0.171875 16.109375 -1.890625 C 12.441406 -3.609375 9.503906 -6.171875 7.296875 -9.578125 C 5.097656 -12.984375 4 -17.203125 4 -22.234375 C 4 -25.460938 4.5625 -28.5 5.6875 -31.34375 C 6.820312 -34.195312 8.476562 -36.710938 10.65625 -38.890625 C 12.832031 -41.066406 15.484375 -42.769531 18.609375 -44 C 21.742188 -45.238281 25.3125 -45.859375 29.3125 -45.859375 C 31.414062 -45.859375 33.644531 -45.648438 36 -45.234375 C 38.363281 -44.828125 40.46875 -44.238281 42.3125 -43.46875 L 42.859375 -32.921875 L 39.390625 -32.625 L 37.078125 -39.921875 C 36.109375 -40.585938 34.828125 -41.085938 33.234375 -41.421875 C 31.640625 -41.753906 30.101562 -41.921875 28.625 -41.921875 C 24.769531 -41.921875 21.625 -41.085938 19.1875 -39.421875 C 16.757812 -37.753906 14.96875 -35.535156 13.8125 -32.765625 C 12.65625 -30.003906 12.078125 -26.957031 12.078125 -23.625 C 12.078125 -19.257812 12.832031 -15.5625 14.34375 -12.53125 C 15.863281 -9.507812 17.914062 -7.226562 20.5 -5.6875 C 23.09375 -4.15625 25.953125 -3.390625 29.078125 -3.390625 C 30.671875 -3.390625 32.144531 -3.566406 33.5 -3.921875 C 34.863281 -4.285156 36.160156 -4.828125 37.390625 -5.546875 L 40.78125 -12.765625 L 44.3125 -12.390625 L 42.15625 -2.6875 C 40.363281 -1.820312 38.273438 -1.039062 35.890625 -0.34375 C 33.503906 0.34375 30.976562 0.6875 28.3125 0.6875 Z M 28.3125 0.6875 "/></g></g></g><g fill="#e19041" fill-opacity="1"><g transform="translate(210.496119, 224.235264)"><g><path d="M 31.46875 0 L 31.3125 -2.921875 L 36 -4 C 36.101562 -4.207031 36.191406 -4.734375 36.265625 -5.578125 C 36.347656 -6.421875 36.398438 -7.632812 36.421875 -9.21875 C 36.453125 -10.8125 36.46875 -12.84375 36.46875 -15.3125 L 36.46875 -29.78125 C 36.46875 -32.34375 36.453125 -34.414062 36.421875 -36 C 36.398438 -37.59375 36.347656 -38.8125 36.265625 -39.65625 C 36.191406 -40.5 36.101562 -41 36 -41.15625 L 31.3125 -42.234375 L 31.46875 -45.15625 L 48 -45.15625 L 48.234375 -42.234375 L 43.46875 -41.15625 C 43.363281 -41 43.285156 -40.5 43.234375 -39.65625 C 43.179688 -38.8125 43.128906 -37.59375 43.078125 -36 C 43.023438 -34.414062 43 -32.34375 43 -29.78125 L 43 -15.3125 C 43 -12.84375 43.023438 -10.8125 43.078125 -9.21875 C 43.128906 -7.632812 43.179688 -6.421875 43.234375 -5.578125 C 43.285156 -4.734375 43.363281 -4.207031 43.46875 -4 L 48.234375 -2.921875 L 48 0 Z M 3.765625 0 L 3.53125 -2.921875 L 8.3125 -4 C 8.414062 -4.257812 8.476562 -4.847656 8.5 -5.765625 C 8.53125 -6.691406 8.554688 -7.945312 8.578125 -9.53125 C 8.597656 -11.125 8.609375 -13.050781 8.609375 -15.3125 L 8.609375 -29.78125 C 8.609375 -32.082031 8.597656 -34.039062 8.578125 -35.65625 C 8.554688 -37.269531 8.53125 -38.550781 8.5 -39.5 C 8.476562 -40.445312 8.414062 -41 8.3125 -41.15625 L 3.53125 -42.234375 L 3.765625 -45.15625 L 20.15625 -45.15625 L 20.3125 -42.234375 L 15.625 -41.15625 C 15.519531 -41 15.425781 -40.5 15.34375 -39.65625 C 15.269531 -38.8125 15.21875 -37.59375 15.1875 -36 C 15.164062 -34.414062 15.15625 -32.34375 15.15625 -29.78125 L 15.15625 -15.3125 C 15.15625 -12.84375 15.164062 -10.8125 15.1875 -9.21875 C 15.21875 -7.632812 15.269531 -6.421875 15.34375 -5.578125 C 15.425781 -4.734375 15.519531 -4.207031 15.625 -4 L 20.3125 -2.921875 L 20.15625 0 Z M 14.234375 -20.921875 L 14.234375 -25.46875 C 15.203125 -25.414062 16.6875 -25.363281 18.6875 -25.3125 C 20.695312 -25.257812 23.109375 -25.234375 25.921875 -25.234375 C 28.742188 -25.234375 31.113281 -25.257812 33.03125 -25.3125 C 34.957031 -25.363281 36.382812 -25.414062 37.3125 -25.46875 L 37.3125 -20.921875 C 36.1875 -21.078125 34.722656 -21.164062 32.921875 -21.1875 C 31.128906 -21.21875 28.796875 -21.234375 25.921875 -21.234375 C 22.953125 -21.234375 20.539062 -21.21875 18.6875 -21.1875 C 16.84375 -21.164062 15.359375 -21.078125 14.234375 -20.921875 Z M 14.234375 -20.921875 "/></g></g></g><g fill="#e19041" fill-opacity="1"><g transform="translate(262.191168, 224.235264)"><g><path d="M 3.765625 0 L 3.609375 -2.921875 L 8.3125 -4 C 8.414062 -4.257812 8.476562 -4.847656 8.5 -5.765625 C 8.53125 -6.691406 8.554688 -7.945312 8.578125 -9.53125 C 8.597656 -11.125 8.609375 -13.050781 8.609375 -15.3125 L 8.609375 -29.78125 C 8.609375 -32.082031 8.597656 -34.039062 8.578125 -35.65625 C 8.554688 -37.269531 8.53125 -38.550781 8.5 -39.5 C 8.476562 -40.445312 8.414062 -41 8.3125 -41.15625 L 3.609375 -42.234375 L 3.765625 -45.15625 L 20.15625 -45.15625 L 20.3125 -42.234375 L 15.625 -41.15625 C 15.519531 -41 15.425781 -40.5 15.34375 -39.65625 C 15.269531 -38.8125 15.21875 -37.59375 15.1875 -36 C 15.164062 -34.414062 15.15625 -32.34375 15.15625 -29.78125 L 15.15625 -15.3125 C 15.15625 -12.84375 15.164062 -10.8125 15.1875 -9.21875 C 15.21875 -7.632812 15.269531 -6.421875 15.34375 -5.578125 C 15.425781 -4.734375 15.519531 -4.207031 15.625 -4 L 20.3125 -2.921875 L 20.15625 0 Z M 3.765625 0 "/></g></g></g><g fill="#e19041" fill-opacity="1"><g transform="translate(286.038617, 224.235264)"><g><path d="M 35.921875 0.390625 C 35.203125 0.285156 34.394531 0.207031 33.5 0.15625 C 32.601562 0.101562 31.71875 0.0625 30.84375 0.03125 C 29.976562 0.0078125 29.1875 0 28.46875 0 L 3.84375 0 L 3.6875 -2.921875 L 8.390625 -4 C 8.441406 -4.257812 8.488281 -4.835938 8.53125 -5.734375 C 8.582031 -6.628906 8.617188 -7.894531 8.640625 -9.53125 C 8.671875 -11.175781 8.6875 -13.101562 8.6875 -15.3125 L 8.6875 -29.78125 C 8.6875 -32.082031 8.6875 -34.023438 8.6875 -35.609375 C 8.6875 -37.203125 8.660156 -38.460938 8.609375 -39.390625 C 8.566406 -40.316406 8.492188 -40.878906 8.390625 -41.078125 L 3.6875 -42.234375 L 3.84375 -45.15625 L 21.921875 -45.15625 L 22.15625 -42.078125 L 15.765625 -41.078125 C 15.671875 -40.929688 15.597656 -40.429688 15.546875 -39.578125 C 15.492188 -38.734375 15.441406 -37.503906 15.390625 -35.890625 C 15.335938 -34.273438 15.3125 -32.238281 15.3125 -29.78125 L 15.3125 -15.3125 C 15.3125 -12.644531 15.335938 -10.320312 15.390625 -8.34375 C 15.441406 -6.375 15.492188 -5.109375 15.546875 -4.546875 C 16.265625 -4.441406 16.992188 -4.375 17.734375 -4.34375 C 18.472656 -4.320312 19.359375 -4.3125 20.390625 -4.3125 L 26.15625 -4.3125 C 27.332031 -4.3125 28.332031 -4.335938 29.15625 -4.390625 C 29.976562 -4.441406 30.800781 -4.515625 31.625 -4.609375 L 35.625 -12.15625 L 39.078125 -11.390625 Z M 35.921875 0.390625 "/></g></g></g><g fill="#e19041" fill-opacity="1"><g transform="translate(325.348371, 224.235264)"><g><path d="M 35.921875 0.390625 C 35.203125 0.285156 34.394531 0.207031 33.5 0.15625 C 32.601562 0.101562 31.71875 0.0625 30.84375 0.03125 C 29.976562 0.0078125 29.1875 0 28.46875 0 L 3.84375 0 L 3.6875 -2.921875 L 8.390625 -4 C 8.441406 -4.257812 8.488281 -4.835938 8.53125 -5.734375 C 8.582031 -6.628906 8.617188 -7.894531 8.640625 -9.53125 C 8.671875 -11.175781 8.6875 -13.101562 8.6875 -15.3125 L 8.6875 -29.78125 C 8.6875 -32.082031 8.6875 -34.023438 8.6875 -35.609375 C 8.6875 -37.203125 8.660156 -38.460938 8.609375 -39.390625 C 8.566406 -40.316406 8.492188 -40.878906 8.390625 -41.078125 L 3.6875 -42.234375 L 3.84375 -45.15625 L 21.921875 -45.15625 L 22.15625 -42.078125 L 15.765625 -41.078125 C 15.671875 -40.929688 15.597656 -40.429688 15.546875 -39.578125 C 15.492188 -38.734375 15.441406 -37.503906 15.390625 -35.890625 C 15.335938 -34.273438 15.3125 -32.238281 15.3125 -29.78125 L 15.3125 -15.3125 C 15.3125 -12.644531 15.335938 -10.320312 15.390625 -8.34375 C 15.441406 -6.375 15.492188 -5.109375 15.546875 -4.546875 C 16.265625 -4.441406 16.992188 -4.375 17.734375 -4.34375 C 18.472656 -4.320312 19.359375 -4.3125 20.390625 -4.3125 L 26.15625 -4.3125 C 27.332031 -4.3125 28.332031 -4.335938 29.15625 -4.390625 C 29.976562 -4.441406 30.800781 -4.515625 31.625 -4.609375 L 35.625 -12.15625 L 39.078125 -11.390625 Z M 35.921875 0.390625 "/></g></g></g></svg>